<svg width="229" height="46" viewBox="0 0 229 46" fill="none" xmlns="http://www.w3.org/2000/svg">
<rect width="229" height="46" fill="#1E1E1E"/>
<g clip-path="url(#clip0_0_1)">
<rect width="229" height="46" fill="white"/>
<path d="M0 24.15H10.0901C12.3924 24.15 14.7775 24.2903 16.7371 25.4978C18.2689 26.4417 19.5583 27.7311 20.5022 29.2629C21.7097 31.2225 21.85 33.6076 21.85 35.9099V46H6.9C5.07001 46 3.31496 45.273 2.02096 43.979C0.726962 42.685 0 40.93 0 39.1V24.15ZM46 2.3C46 2.91 45.7577 3.49501 45.3263 3.92635C44.895 4.35768 44.31 4.6 43.7 4.6C43.09 4.6 42.505 4.35768 42.0737 3.92635C41.6423 3.49501 41.4 2.91 41.4 2.3C41.4 1.69 41.6423 1.10499 42.0737 0.673654C42.505 0.242321 43.09 0 43.7 0C44.31 0 44.895 0.242321 45.3263 0.673654C45.7577 1.10499 46 1.69 46 2.3Z" fill="#5F6FFF"/>
<path d="M22.9724 0C35.6753 0 45.9724 10.2971 45.9724 23V39.1C45.9724 40.93 45.2455 42.685 43.9515 43.979C42.6575 45.273 40.9024 46 39.0724 46H24.1224V35.9099C24.1224 33.6076 24.2627 31.2225 25.4702 29.2629C26.3347 27.8586 27.4912 26.6566 28.8611 25.7385C30.231 24.8204 31.7823 24.2077 33.4098 23.9419L33.8503 23.8706C34.0319 23.8085 34.1895 23.6912 34.3011 23.5351C34.4127 23.379 34.4727 23.1919 34.4727 23C34.4727 22.8081 34.4127 22.621 34.3011 22.4649C34.1895 22.3088 34.0319 22.1915 33.8503 22.1294L33.4098 22.0581C31.0318 21.6697 28.8359 20.5441 27.1321 18.8403C25.4283 17.1365 24.3028 14.9406 23.9143 12.5626L23.843 12.1222C23.7809 11.9406 23.6636 11.7829 23.5075 11.6713C23.3514 11.5597 23.1643 11.4997 22.9724 11.4997C22.7805 11.4997 22.5935 11.5597 22.4374 11.6713C22.2813 11.7829 22.164 11.9406 22.1019 12.1222L22.0306 12.5626C21.7649 14.1902 21.1522 15.7415 20.2341 17.1114C19.316 18.4814 18.1139 19.6378 16.7095 20.5022C14.7499 21.7097 12.3648 21.85 10.0625 21.85H0C0.60145 9.68185 10.6559 0 22.9724 0Z" fill="#5F6FFF"/>
<path d="M61.789 36H57.5885V14.2225H61.789V22.7165H71.988V14.2225H76.1885V36H71.988V26.731H61.789V36ZM83.8014 29.211C84.0598 30.3683 84.6126 31.2777 85.4599 31.939C86.3176 32.6003 87.3303 32.931 88.4979 32.931C89.9963 32.931 91.2828 32.435 92.3574 31.443L94.2484 34.1865C93.4734 34.8995 92.5796 35.4523 91.5669 35.845C90.5646 36.2377 89.4641 36.434 88.2654 36.434C86.6844 36.434 85.2533 36.0568 83.9719 35.3025C82.7009 34.5378 81.7038 33.5045 80.9804 32.2025C80.2571 30.9005 79.8954 29.4797 79.8954 27.94C79.8954 26.3797 80.2364 24.9485 80.9184 23.6465C81.6004 22.3445 82.5459 21.3163 83.7549 20.562C84.9743 19.7973 86.3383 19.415 87.8469 19.415C89.5106 19.415 90.9469 19.7767 92.1559 20.5C93.3649 21.213 94.2846 22.205 94.9149 23.476C95.5453 24.747 95.8604 26.1988 95.8604 27.8315C95.8604 28.3275 95.8294 28.7873 95.7674 29.211H83.8014ZM88.0019 22.8405C86.9686 22.8405 86.0799 23.1402 85.3359 23.7395C84.5919 24.3285 84.0908 25.15 83.8324 26.204H92.0474C91.8098 25.1293 91.3396 24.3027 90.6369 23.724C89.9446 23.135 89.0663 22.8405 88.0019 22.8405ZM111.513 19.756H114.954V36H111.498L111.219 34.0935C110.599 34.8065 109.87 35.3697 109.033 35.783C108.196 36.186 107.261 36.3875 106.228 36.3875C104.761 36.3875 103.397 36.0103 102.136 35.256C100.886 34.4913 99.8937 33.4632 99.16 32.1715C98.4263 30.8695 98.0595 29.4435 98.0595 27.8935C98.0595 26.3435 98.4263 24.9227 99.16 23.631C99.904 22.329 100.901 21.3008 102.151 20.5465C103.402 19.7818 104.761 19.3995 106.228 19.3995C107.282 19.3995 108.227 19.6062 109.064 20.0195C109.912 20.4328 110.645 21.0012 111.265 21.7245L111.513 19.756ZM106.569 32.6365C107.427 32.6365 108.212 32.435 108.925 32.032C109.638 31.6187 110.201 31.0555 110.614 30.3425C111.028 29.6192 111.234 28.808 111.234 27.909C111.234 27.01 111.028 26.1988 110.614 25.4755C110.201 24.7418 109.638 24.1683 108.925 23.755C108.212 23.3417 107.427 23.135 106.569 23.135C105.722 23.135 104.947 23.3417 104.244 23.755C103.541 24.1683 102.988 24.7418 102.585 25.4755C102.182 26.1988 101.981 27.01 101.981 27.909C101.981 28.808 102.182 29.6192 102.585 30.3425C102.988 31.0658 103.536 31.629 104.228 32.032C104.931 32.435 105.711 32.6365 106.569 32.6365ZM123.167 36H119.23V12.781H123.167V36ZM131.82 36H127.852V23.383H125.527V19.7405H127.837V15.8655L131.82 14.92V19.7405H135.401V23.383H131.82V36ZM146.642 19.3995C147.934 19.3995 149.065 19.6785 150.037 20.2365C151.008 20.7842 151.757 21.585 152.284 22.639C152.811 23.6827 153.075 24.933 153.075 26.39V36H149.107V27.0875C149.107 25.8062 148.792 24.8142 148.161 24.1115C147.541 23.4088 146.668 23.0575 145.542 23.0575C144.808 23.0575 144.131 23.2332 143.511 23.5845C142.902 23.9358 142.421 24.4112 142.07 25.0105C141.718 25.6098 141.543 26.2712 141.543 26.9945V36H137.606V12.781H141.543V21.5075C142.173 20.8772 142.948 20.3708 143.868 19.9885C144.787 19.5958 145.712 19.3995 146.642 19.3995ZM173.028 36H157.249V14.2225H172.795V18.0665H161.449V23.1195H170.517V26.7465H161.449V32.156H173.028V36ZM188.559 19.756H192V36H188.544L188.265 34.0935C187.645 34.8065 186.916 35.3697 186.079 35.783C185.242 36.186 184.307 36.3875 183.274 36.3875C181.807 36.3875 180.443 36.0103 179.182 35.256C177.932 34.4913 176.94 33.4632 176.206 32.1715C175.472 30.8695 175.105 29.4435 175.105 27.8935C175.105 26.3435 175.472 24.9227 176.206 23.631C176.95 22.329 177.947 21.3008 179.197 20.5465C180.448 19.7818 181.807 19.3995 183.274 19.3995C184.328 19.3995 185.273 19.6062 186.11 20.0195C186.958 20.4328 187.691 21.0012 188.311 21.7245L188.559 19.756ZM183.615 32.6365C184.473 32.6365 185.258 32.435 185.971 32.032C186.684 31.6187 187.247 31.0555 187.66 30.3425C188.074 29.6192 188.28 28.808 188.28 27.909C188.28 27.01 188.074 26.1988 187.66 25.4755C187.247 24.7418 186.684 24.1683 185.971 23.755C185.258 23.3417 184.473 23.135 183.615 23.135C182.768 23.135 181.993 23.3417 181.29 23.755C180.587 24.1683 180.034 24.7418 179.631 25.4755C179.228 26.1988 179.027 27.01 179.027 27.909C179.027 28.808 179.228 29.6192 179.631 30.3425C180.034 31.0658 180.582 31.629 181.274 32.032C181.977 32.435 182.757 32.6365 183.615 32.6365ZM201.949 36.434C200.554 36.434 199.241 36.217 198.012 35.783C196.782 35.349 195.666 34.7497 194.664 33.985L196.539 31.195C197.242 31.691 198.069 32.1147 199.019 32.466C199.98 32.807 200.915 32.9775 201.825 32.9775C202.61 32.9775 203.23 32.838 203.685 32.559C204.15 32.28 204.382 31.8873 204.382 31.381C204.382 31.04 204.263 30.7507 204.026 30.513C203.788 30.2753 203.411 30.0532 202.894 29.8465C202.378 29.6398 201.659 29.4228 200.74 29.1955C199.128 28.7925 197.836 28.1828 196.865 27.3665C195.904 26.5398 195.423 25.4858 195.423 24.2045C195.423 23.3055 195.682 22.4943 196.198 21.771C196.715 21.0373 197.464 20.4587 198.446 20.035C199.427 19.601 200.59 19.384 201.933 19.384C202.946 19.384 203.995 19.5648 205.08 19.9265C206.175 20.2778 207.157 20.7687 208.025 21.399L206.134 24.2355C205.565 23.8635 204.873 23.5432 204.057 23.2745C203.251 23.0058 202.491 22.8715 201.778 22.8715C201.003 22.8715 200.414 22.9955 200.011 23.2435C199.619 23.4915 199.422 23.8325 199.422 24.2665C199.422 24.5662 199.52 24.8245 199.717 25.0415C199.923 25.2585 200.264 25.4652 200.74 25.6615C201.215 25.8475 201.887 26.0542 202.755 26.2815C203.943 26.5812 204.945 26.9377 205.762 27.351C206.578 27.754 207.219 28.2862 207.684 28.9475C208.159 29.5985 208.397 30.4045 208.397 31.3655C208.397 32.3265 208.128 33.1945 207.591 33.9695C207.053 34.7342 206.294 35.3387 205.312 35.783C204.331 36.217 203.209 36.434 201.949 36.434ZM214.007 29.211C214.266 30.3683 214.819 31.2777 215.666 31.939C216.524 32.6003 217.536 32.931 218.704 32.931C220.202 32.931 221.489 32.435 222.563 31.443L224.454 34.1865C223.679 34.8995 222.786 35.4523 221.773 35.845C220.771 36.2377 219.67 36.434 218.471 36.434C216.89 36.434 215.459 36.0568 214.178 35.3025C212.907 34.5378 211.91 33.5045 211.186 32.2025C210.463 30.9005 210.101 29.4797 210.101 27.94C210.101 26.3797 210.442 24.9485 211.124 23.6465C211.806 22.3445 212.752 21.3163 213.961 20.562C215.18 19.7973 216.544 19.415 218.053 19.415C219.717 19.415 221.153 19.7767 222.362 20.5C223.571 21.213 224.491 22.205 225.121 23.476C225.751 24.747 226.066 26.1988 226.066 27.8315C226.066 28.3275 226.035 28.7873 225.973 29.211H214.007ZM218.208 22.8405C217.175 22.8405 216.286 23.1402 215.542 23.7395C214.798 24.3285 214.297 25.15 214.038 26.204H222.253C222.016 25.1293 221.546 24.3027 220.843 23.724C220.151 23.135 219.272 22.8405 218.208 22.8405Z" fill="#000B6D"/>
</g>
<defs>
<clipPath id="clip0_0_1">
<rect width="229" height="46" fill="white"/>
</clipPath>
</defs>
</svg>
